<mxfile host="Electron" agent="Mozilla/5.0 (Macintosh; Intel Mac OS X 10_15_7) AppleWebKit/537.36 (KHTML, like Gecko) draw.io/26.0.15 Chrome/132.0.6834.196 Electron/34.2.0 Safari/537.36" version="26.0.15">
  <diagram name="Page-1" id="EEz5u-kWuHHDsCuBFhzt">
    <mxGraphModel dx="269" dy="763" grid="1" gridSize="10" guides="1" tooltips="1" connect="1" arrows="1" fold="1" page="1" pageScale="1" pageWidth="1100" pageHeight="850" math="0" shadow="0">
      <root>
        <mxCell id="0" />
        <mxCell id="1" parent="0" />
        <mxCell id="n1KaCsgwGXQdcuZ2LLGF-1" value="" style="rounded=0;whiteSpace=wrap;html=1;" vertex="1" parent="1">
          <mxGeometry x="40" y="40" width="120" height="60" as="geometry" />
        </mxCell>
        <mxCell id="n1KaCsgwGXQdcuZ2LLGF-2" value="" style="rounded=1;whiteSpace=wrap;html=1;" vertex="1" parent="1">
          <mxGeometry x="40" y="120" width="120" height="60" as="geometry" />
        </mxCell>
        <mxCell id="n1KaCsgwGXQdcuZ2LLGF-3" value="" style="ellipse;whiteSpace=wrap;html=1;" vertex="1" parent="1">
          <mxGeometry x="40" y="200" width="120" height="80" as="geometry" />
        </mxCell>
        <mxCell id="n1KaCsgwGXQdcuZ2LLGF-4" value="" style="whiteSpace=wrap;html=1;aspect=fixed;" vertex="1" parent="1">
          <mxGeometry x="60" y="310" width="80" height="80" as="geometry" />
        </mxCell>
        <mxCell id="n1KaCsgwGXQdcuZ2LLGF-5" value="" style="ellipse;whiteSpace=wrap;html=1;aspect=fixed;" vertex="1" parent="1">
          <mxGeometry x="60" y="410" width="80" height="80" as="geometry" />
        </mxCell>
        <mxCell id="n1KaCsgwGXQdcuZ2LLGF-6" value="" style="shape=process;whiteSpace=wrap;html=1;backgroundOutline=1;" vertex="1" parent="1">
          <mxGeometry x="40" y="520" width="120" height="60" as="geometry" />
        </mxCell>
        <mxCell id="n1KaCsgwGXQdcuZ2LLGF-7" value="" style="rhombus;whiteSpace=wrap;html=1;" vertex="1" parent="1">
          <mxGeometry x="60" y="610" width="80" height="80" as="geometry" />
        </mxCell>
        <mxCell id="n1KaCsgwGXQdcuZ2LLGF-8" value="" style="shape=parallelogram;perimeter=parallelogramPerimeter;whiteSpace=wrap;html=1;fixedSize=1;" vertex="1" parent="1">
          <mxGeometry x="40" y="710" width="120" height="60" as="geometry" />
        </mxCell>
        <mxCell id="n1KaCsgwGXQdcuZ2LLGF-9" value="" style="shape=hexagon;perimeter=hexagonPerimeter2;whiteSpace=wrap;html=1;fixedSize=1;" vertex="1" parent="1">
          <mxGeometry x="30" y="790" width="120" height="80" as="geometry" />
        </mxCell>
        <mxCell id="n1KaCsgwGXQdcuZ2LLGF-10" value="" style="triangle;whiteSpace=wrap;html=1;" vertex="1" parent="1">
          <mxGeometry x="70" y="890" width="60" height="80" as="geometry" />
        </mxCell>
        <mxCell id="n1KaCsgwGXQdcuZ2LLGF-11" value="" style="shape=cylinder3;whiteSpace=wrap;html=1;boundedLbl=1;backgroundOutline=1;size=15;" vertex="1" parent="1">
          <mxGeometry x="60" y="990" width="60" height="80" as="geometry" />
        </mxCell>
        <mxCell id="n1KaCsgwGXQdcuZ2LLGF-12" value="" style="ellipse;shape=cloud;whiteSpace=wrap;html=1;" vertex="1" parent="1">
          <mxGeometry x="30" y="1100" width="120" height="80" as="geometry" />
        </mxCell>
        <mxCell id="n1KaCsgwGXQdcuZ2LLGF-13" value="" style="shape=document;whiteSpace=wrap;html=1;boundedLbl=1;" vertex="1" parent="1">
          <mxGeometry x="30" y="1210" width="120" height="80" as="geometry" />
        </mxCell>
        <mxCell id="n1KaCsgwGXQdcuZ2LLGF-14" value="" style="endArrow=classic;html=1;rounded=0;" edge="1" parent="1">
          <mxGeometry width="50" height="50" relative="1" as="geometry">
            <mxPoint x="75" y="1350" as="sourcePoint" />
            <mxPoint x="125" y="1300" as="targetPoint" />
          </mxGeometry>
        </mxCell>
        <mxCell id="n1KaCsgwGXQdcuZ2LLGF-15" value="style=&quot;rounded=0;...&quot;" style="rounded=1;whiteSpace=wrap;html=1;strokeColor=#7EA6E0;sketch=1;curveFitting=1;jiggle=2;dashed=1;dashPattern=1 1;fontColor=#7EA6E0;" vertex="1" parent="1">
          <mxGeometry x="200" y="50" width="120" height="40" as="geometry" />
        </mxCell>
        <mxCell id="n1KaCsgwGXQdcuZ2LLGF-16" value="style=&quot;rounded=1;...&quot;" style="rounded=1;whiteSpace=wrap;html=1;sketch=1;curveFitting=1;jiggle=2;dashed=1;strokeColor=#7EA6E0;fillColor=none;fontColor=#7EA6E0;dashPattern=1 1;" vertex="1" parent="1">
          <mxGeometry x="200" y="130" width="120" height="40" as="geometry" />
        </mxCell>
        <mxCell id="n1KaCsgwGXQdcuZ2LLGF-18" value="style=&quot;ellipse;...&quot;" style="rounded=1;whiteSpace=wrap;html=1;sketch=1;curveFitting=1;jiggle=2;dashed=1;strokeColor=#7EA6E0;fillColor=none;fontColor=#7EA6E0;dashPattern=1 1;" vertex="1" parent="1">
          <mxGeometry x="200" y="220" width="120" height="40" as="geometry" />
        </mxCell>
        <mxCell id="n1KaCsgwGXQdcuZ2LLGF-19" value="style=&quot;...;aspect=fixed;...&quot;" style="rounded=1;whiteSpace=wrap;html=1;sketch=1;curveFitting=1;jiggle=2;dashed=1;strokeColor=#7EA6E0;fillColor=none;fontColor=#7EA6E0;dashPattern=1 1;" vertex="1" parent="1">
          <mxGeometry x="200" y="330" width="200" height="40" as="geometry" />
        </mxCell>
        <mxCell id="n1KaCsgwGXQdcuZ2LLGF-20" value="style=&quot;ellipse;...;aspect=fixed;...&quot;" style="rounded=1;whiteSpace=wrap;html=1;sketch=1;curveFitting=1;jiggle=2;dashed=1;strokeColor=#7EA6E0;fillColor=none;fontColor=#7EA6E0;dashPattern=1 1;" vertex="1" parent="1">
          <mxGeometry x="200" y="430" width="200" height="40" as="geometry" />
        </mxCell>
        <mxCell id="n1KaCsgwGXQdcuZ2LLGF-21" value="style=&quot;shape=process;...&quot;" style="rounded=1;whiteSpace=wrap;html=1;sketch=1;curveFitting=1;jiggle=2;dashed=1;strokeColor=#7EA6E0;fillColor=none;fontColor=#7EA6E0;dashPattern=1 1;" vertex="1" parent="1">
          <mxGeometry x="200" y="530" width="160" height="40" as="geometry" />
        </mxCell>
        <mxCell id="n1KaCsgwGXQdcuZ2LLGF-22" value="style=&quot;rhombus;...&quot;" style="rounded=1;whiteSpace=wrap;html=1;sketch=1;curveFitting=1;jiggle=2;dashed=1;strokeColor=#7EA6E0;fillColor=none;fontColor=#7EA6E0;dashPattern=1 1;" vertex="1" parent="1">
          <mxGeometry x="200" y="630" width="120" height="40" as="geometry" />
        </mxCell>
        <mxCell id="n1KaCsgwGXQdcuZ2LLGF-23" value="style=&quot;shape=parallelogram;...&quot;" style="rounded=1;whiteSpace=wrap;html=1;sketch=1;curveFitting=1;jiggle=2;dashed=1;strokeColor=#7EA6E0;fillColor=none;fontColor=#7EA6E0;dashPattern=1 1;" vertex="1" parent="1">
          <mxGeometry x="200" y="720" width="200" height="40" as="geometry" />
        </mxCell>
        <mxCell id="n1KaCsgwGXQdcuZ2LLGF-24" value="style=&quot;shape=hexagon;...&quot;" style="rounded=1;whiteSpace=wrap;html=1;sketch=1;curveFitting=1;jiggle=2;dashed=1;strokeColor=#7EA6E0;fillColor=none;fontColor=#7EA6E0;dashPattern=1 1;" vertex="1" parent="1">
          <mxGeometry x="200" y="810" width="200" height="40" as="geometry" />
        </mxCell>
        <mxCell id="n1KaCsgwGXQdcuZ2LLGF-25" value="style=&quot;triangle;...&quot;" style="rounded=1;whiteSpace=wrap;html=1;sketch=1;curveFitting=1;jiggle=2;dashed=1;strokeColor=#7EA6E0;fillColor=none;fontColor=#7EA6E0;dashPattern=1 1;" vertex="1" parent="1">
          <mxGeometry x="200" y="910" width="120" height="40" as="geometry" />
        </mxCell>
        <mxCell id="n1KaCsgwGXQdcuZ2LLGF-26" value="style=&quot;shape=cylinder3;...&quot;" style="rounded=1;whiteSpace=wrap;html=1;sketch=1;curveFitting=1;jiggle=2;dashed=1;strokeColor=#7EA6E0;fillColor=none;fontColor=#7EA6E0;dashPattern=1 1;" vertex="1" parent="1">
          <mxGeometry x="200" y="1010" width="200" height="40" as="geometry" />
        </mxCell>
        <mxCell id="n1KaCsgwGXQdcuZ2LLGF-27" value="style=&quot;ellipse;shape=cloud;...&quot;" style="rounded=1;whiteSpace=wrap;html=1;sketch=1;curveFitting=1;jiggle=2;dashed=1;strokeColor=#7EA6E0;fillColor=none;fontColor=#7EA6E0;dashPattern=1 1;" vertex="1" parent="1">
          <mxGeometry x="200" y="1120" width="200" height="40" as="geometry" />
        </mxCell>
        <mxCell id="n1KaCsgwGXQdcuZ2LLGF-28" value="style=&quot;shape=document;...&quot;" style="rounded=1;whiteSpace=wrap;html=1;sketch=1;curveFitting=1;jiggle=2;dashed=1;strokeColor=#7EA6E0;fillColor=none;fontColor=#7EA6E0;dashPattern=1 1;" vertex="1" parent="1">
          <mxGeometry x="200" y="1220" width="200" height="40" as="geometry" />
        </mxCell>
        <mxCell id="n1KaCsgwGXQdcuZ2LLGF-29" value="style=&quot;endArrow=classic;...&quot; edge=1" style="rounded=1;whiteSpace=wrap;html=1;sketch=1;curveFitting=1;jiggle=2;dashed=1;strokeColor=#7EA6E0;fillColor=none;fontColor=#7EA6E0;dashPattern=1 1;" vertex="1" parent="1">
          <mxGeometry x="200" y="1300" width="240" height="40" as="geometry" />
        </mxCell>
        <mxCell id="n1KaCsgwGXQdcuZ2LLGF-30" value="&lt;div&gt;&amp;nbsp;&amp;lt;mxPoint x=&quot;75&quot; y=&quot;1350&quot; as=&quot;sourcePoint&quot; /&amp;gt;&lt;/div&gt;&lt;div&gt;&lt;span style=&quot;background-color: transparent; color: light-dark(rgb(126, 166, 224), rgb(67, 102, 151));&quot;&gt;&amp;lt;mxPoint x=&quot;125&quot; y=&quot;1300&quot; as=&quot;targetPoint&quot; /&amp;gt;&lt;/span&gt;&lt;/div&gt;&lt;div&gt;&lt;br&gt;&lt;/div&gt;" style="rounded=1;whiteSpace=wrap;html=1;sketch=1;curveFitting=1;jiggle=2;dashed=1;strokeColor=#7EA6E0;fillColor=none;fontColor=#7EA6E0;dashPattern=1 1;verticalAlign=bottom;align=center;" vertex="1" parent="1">
          <mxGeometry x="210" y="1340" width="270" height="60" as="geometry" />
        </mxCell>
      </root>
    </mxGraphModel>
  </diagram>
</mxfile>
